%TF.GenerationSoftware,KiCad,Pcbnew,9.0.2+dfsg-1*%
%TF.CreationDate,2026-10-04T03:09:16+00:00*%
%TF.ProjectId,optical-bench-10,6f707469-6361-46c2-9d62-656e63682d31,rev?*%
%TF.SameCoordinates,Original*%
%TF.FileFunction,Copper,L1,Top*%
%TF.FilePolarity,Positive*%
%FSLAX46Y46*%
G04 Gerber Fmt 4.6, Leading zero omitted, Abs format (unit mm)*
G04 Created by KiCad (PCBNEW 9.0.2+dfsg-1) date 2026-10-04 03:09:16*
%MOMM*%
%LPD*%
G01*
G04 APERTURE LIST*
G04 Aperture macros list*
%AMRoundRect*
0 Rectangle with rounded corners*
0 $1 Rounding radius*
0 $2 $3 $4 $5 $6 $7 $8 $9 X,Y pos of 4 corners*
0 Add a 4 corners polygon primitive as box body*
4,1,4,$2,$3,$4,$5,$6,$7,$8,$9,$2,$3,0*
0 Add four circle primitives for the rounded corners*
1,1,$1+$1,$2,$3*
1,1,$1+$1,$4,$5*
1,1,$1+$1,$6,$7*
1,1,$1+$1,$8,$9*
0 Add four rect primitives between the rounded corners*
20,1,$1+$1,$2,$3,$4,$5,0*
20,1,$1+$1,$4,$5,$6,$7,0*
20,1,$1+$1,$6,$7,$8,$9,0*
20,1,$1+$1,$8,$9,$2,$3,0*%
G04 Aperture macros list end*
%TA.AperFunction,SMDPad,CuDef*%
%ADD10RoundRect,0.147500X-0.147500X-0.172500X0.147500X-0.172500X0.147500X0.172500X-0.147500X0.172500X0*%
%TD*%
%TA.AperFunction,ViaPad*%
%ADD11C,0.600000*%
%TD*%
%TA.AperFunction,Conductor*%
%ADD12C,0.150000*%
%TD*%
G04 APERTURE END LIST*
D10*
%TO.P,D4,1*%
%TO.N,GND*%
X68515000Y-70000000D03*
%TO.P,D4,2*%
%TO.N,LED3*%
X69485000Y-70000000D03*
%TD*%
%TO.P,D3,1*%
%TO.N,GND*%
X66515000Y-70000000D03*
%TO.P,D3,2*%
%TO.N,LED2*%
X67485000Y-70000000D03*
%TD*%
%TO.P,D9,1*%
%TO.N,GND*%
X68515000Y-64000000D03*
%TO.P,D9,2*%
%TO.N,LED8*%
X69485000Y-64000000D03*
%TD*%
%TO.P,D5,1*%
%TO.N,GND*%
X66515000Y-68000000D03*
%TO.P,D5,2*%
%TO.N,LED4*%
X67485000Y-68000000D03*
%TD*%
%TO.P,D2,1*%
%TO.N,GND*%
X58515000Y-70000000D03*
%TO.P,D2,2*%
%TO.N,LED1*%
X59485000Y-70000000D03*
%TD*%
%TO.P,D8,1*%
%TO.N,GND*%
X70515000Y-66000000D03*
%TO.P,D8,2*%
%TO.N,LED7*%
X71485000Y-66000000D03*
%TD*%
%TO.P,D1,1*%
%TO.N,GND*%
X56515000Y-70000000D03*
%TO.P,D1,2*%
%TO.N,LED0*%
X57485000Y-70000000D03*
%TD*%
%TO.P,D10,1*%
%TO.N,GND*%
X70515000Y-64000000D03*
%TO.P,D10,2*%
%TO.N,LED9*%
X71485000Y-64000000D03*
%TD*%
%TO.P,D6,1*%
%TO.N,GND*%
X68515000Y-68000000D03*
%TO.P,D6,2*%
%TO.N,LED5*%
X69485000Y-68000000D03*
%TD*%
%TO.P,D7,1*%
%TO.N,GND*%
X68515000Y-66000000D03*
%TO.P,D7,2*%
%TO.N,LED6*%
X69485000Y-66000000D03*
%TD*%
D11*
%TO.N,GND*%
X60000000Y-64614700D03*
%TO.N,LED0*%
X50100000Y-64466600D03*
%TO.N,LED1*%
X52300000Y-63599000D03*
%TO.N,LED2*%
X55652000Y-65154900D03*
%TO.N,LED3*%
X72185700Y-61616100D03*
X72185700Y-70000000D03*
X56700000Y-61616100D03*
%TO.N,LED4*%
X58163000Y-66400400D03*
%TO.N,LED5*%
X70931200Y-67324100D03*
%TO.N,LED6*%
X63300000Y-62373800D03*
%TO.N,LED7*%
X71559000Y-67926000D03*
%TO.N,LED8*%
X67700000Y-63126000D03*
%TO.N,LED9*%
X69900000Y-63123700D03*
%TD*%
D12*
%TO.N,GND*%
X67876100Y-67361100D02*
X68515000Y-66722200D01*
X68515000Y-70000000D02*
X68515000Y-68000000D01*
X67792800Y-67277800D02*
X67156500Y-67277800D01*
X70515000Y-64000000D02*
X69827500Y-64687500D01*
X68515000Y-66722200D02*
X68515000Y-66000000D01*
X66515000Y-70657000D02*
X67858000Y-70657000D01*
X69792800Y-66722200D02*
X70515000Y-66000000D01*
X67876100Y-67361100D02*
X67792800Y-67277800D01*
X58515000Y-70657000D02*
X58515000Y-70000000D01*
X68515000Y-66000000D02*
X68515000Y-64687500D01*
X69827500Y-64687500D02*
X68515000Y-64687500D01*
X66515000Y-67919300D02*
X66515000Y-68000000D01*
X67858000Y-70657000D02*
X68515000Y-70000000D01*
X68515000Y-64614700D02*
X60000000Y-64614700D01*
X68515000Y-68000000D02*
X67876100Y-67361100D01*
X68515000Y-64687500D02*
X68515000Y-64614700D01*
X56515000Y-70080700D02*
X57091300Y-70657000D01*
X57091300Y-70657000D02*
X58515000Y-70657000D01*
X58515000Y-70657000D02*
X66515000Y-70657000D01*
X67156500Y-67277800D02*
X66515000Y-67919300D01*
X56515000Y-70000000D02*
X56515000Y-70080700D01*
X68515000Y-66722200D02*
X69792800Y-66722200D01*
X66515000Y-70657000D02*
X66515000Y-70000000D01*
X68515000Y-64614700D02*
X68515000Y-64000000D01*
%TO.N,LED0*%
X57485000Y-69918100D02*
X52033500Y-64466600D01*
X57485000Y-70000000D02*
X57485000Y-69918100D01*
X52033500Y-64466600D02*
X50100000Y-64466600D01*
%TO.N,LED1*%
X59485000Y-69903600D02*
X53180400Y-63599000D01*
X59485000Y-70000000D02*
X59485000Y-69903600D01*
X53180400Y-63599000D02*
X52300000Y-63599000D01*
%TO.N,LED2*%
X67485000Y-69959300D02*
X67485000Y-70000000D01*
X66574700Y-69049000D02*
X67485000Y-69959300D01*
X59546100Y-69049000D02*
X66574700Y-69049000D01*
X55652000Y-65154900D02*
X59546100Y-69049000D01*
%TO.N,LED3*%
X69485000Y-70000000D02*
X72185700Y-70000000D01*
X56700000Y-61616100D02*
X72185700Y-61616100D01*
%TO.N,LED4*%
X60409900Y-68647300D02*
X58163000Y-66400400D01*
X67485000Y-68095500D02*
X66933200Y-68647300D01*
X66933200Y-68647300D02*
X60409900Y-68647300D01*
X67485000Y-68000000D02*
X67485000Y-68095500D01*
%TO.N,LED5*%
X69485000Y-68000000D02*
X70160900Y-67324100D01*
X70160900Y-67324100D02*
X70931200Y-67324100D01*
%TO.N,LED6*%
X71707100Y-64832000D02*
X72128800Y-64410300D01*
X70653000Y-64832000D02*
X71707100Y-64832000D01*
X69485000Y-66000000D02*
X70653000Y-64832000D01*
X72128800Y-64410300D02*
X72128800Y-63612000D01*
X70890600Y-62373800D02*
X63300000Y-62373800D01*
X72128800Y-63612000D02*
X70890600Y-62373800D01*
%TO.N,LED7*%
X71485000Y-66000000D02*
X71559000Y-66074000D01*
X71559000Y-66074000D02*
X71559000Y-67926000D01*
%TO.N,LED8*%
X69485000Y-63890600D02*
X68720400Y-63126000D01*
X68720400Y-63126000D02*
X67700000Y-63126000D01*
X69485000Y-64000000D02*
X69485000Y-63890600D01*
%TO.N,LED9*%
X71485000Y-63890300D02*
X70718400Y-63123700D01*
X71485000Y-64000000D02*
X71485000Y-63890300D01*
X70718400Y-63123700D02*
X69900000Y-63123700D01*
%TD*%
M02*
