%TF.GenerationSoftware,KiCad,Pcbnew,9.0.2+dfsg-1*%
%TF.CreationDate,2026-10-04T03:09:17+00:00*%
%TF.ProjectId,optical-bench-10,6f707469-6361-46c2-9d62-656e63682d31,rev?*%
%TF.SameCoordinates,Original*%
%TF.FileFunction,Legend,Bot*%
%TF.FilePolarity,Positive*%
%FSLAX46Y46*%
G04 Gerber Fmt 4.6, Leading zero omitted, Abs format (unit mm)*
G04 Created by KiCad (PCBNEW 9.0.2+dfsg-1) date 2026-10-04 03:09:17*
%MOMM*%
%LPD*%
G01*
G04 APERTURE LIST*
G04 Aperture macros list*
%AMRoundRect*
0 Rectangle with rounded corners*
0 $1 Rounding radius*
0 $2 $3 $4 $5 $6 $7 $8 $9 X,Y pos of 4 corners*
0 Add a 4 corners polygon primitive as box body*
4,1,4,$2,$3,$4,$5,$6,$7,$8,$9,$2,$3,0*
0 Add four circle primitives for the rounded corners*
1,1,$1+$1,$2,$3*
1,1,$1+$1,$4,$5*
1,1,$1+$1,$6,$7*
1,1,$1+$1,$8,$9*
0 Add four rect primitives between the rounded corners*
20,1,$1+$1,$2,$3,$4,$5,0*
20,1,$1+$1,$4,$5,$6,$7,0*
20,1,$1+$1,$6,$7,$8,$9,0*
20,1,$1+$1,$8,$9,$2,$3,0*%
G04 Aperture macros list end*
%ADD10C,0.080000*%
%ADD11C,2.200000*%
%ADD12RoundRect,0.200000X0.275000X-0.200000X0.275000X0.200000X-0.275000X0.200000X-0.275000X-0.200000X0*%
%ADD13R,1.400000X2.000000*%
G04 APERTURE END LIST*
D10*
X52071428Y-68715935D02*
X52528571Y-68715935D01*
X52299999Y-68715935D02*
X52299999Y-67915935D01*
X52299999Y-67915935D02*
X52376190Y-68030220D01*
X52376190Y-68030220D02*
X52452380Y-68106411D01*
X52452380Y-68106411D02*
X52528571Y-68144506D01*
X54728571Y-67992125D02*
X54690475Y-67954030D01*
X54690475Y-67954030D02*
X54614285Y-67915935D01*
X54614285Y-67915935D02*
X54423809Y-67915935D01*
X54423809Y-67915935D02*
X54347618Y-67954030D01*
X54347618Y-67954030D02*
X54309523Y-67992125D01*
X54309523Y-67992125D02*
X54271428Y-68068316D01*
X54271428Y-68068316D02*
X54271428Y-68144506D01*
X54271428Y-68144506D02*
X54309523Y-68258792D01*
X54309523Y-68258792D02*
X54766666Y-68715935D01*
X54766666Y-68715935D02*
X54271428Y-68715935D01*
X60909523Y-67915935D02*
X61290475Y-67915935D01*
X61290475Y-67915935D02*
X61328571Y-68296887D01*
X61328571Y-68296887D02*
X61290475Y-68258792D01*
X61290475Y-68258792D02*
X61214285Y-68220697D01*
X61214285Y-68220697D02*
X61023809Y-68220697D01*
X61023809Y-68220697D02*
X60947618Y-68258792D01*
X60947618Y-68258792D02*
X60909523Y-68296887D01*
X60909523Y-68296887D02*
X60871428Y-68373078D01*
X60871428Y-68373078D02*
X60871428Y-68563554D01*
X60871428Y-68563554D02*
X60909523Y-68639744D01*
X60909523Y-68639744D02*
X60947618Y-68677840D01*
X60947618Y-68677840D02*
X61023809Y-68715935D01*
X61023809Y-68715935D02*
X61214285Y-68715935D01*
X61214285Y-68715935D02*
X61290475Y-68677840D01*
X61290475Y-68677840D02*
X61328571Y-68639744D01*
X58747618Y-68182601D02*
X58747618Y-68715935D01*
X58938094Y-67877840D02*
X59128571Y-68449268D01*
X59128571Y-68449268D02*
X58633332Y-68449268D01*
X65766666Y-67915935D02*
X65233332Y-67915935D01*
X65233332Y-67915935D02*
X65576190Y-68715935D01*
X50138094Y-67915935D02*
X50061904Y-67915935D01*
X50061904Y-67915935D02*
X49985713Y-67954030D01*
X49985713Y-67954030D02*
X49947618Y-67992125D01*
X49947618Y-67992125D02*
X49909523Y-68068316D01*
X49909523Y-68068316D02*
X49871428Y-68220697D01*
X49871428Y-68220697D02*
X49871428Y-68411173D01*
X49871428Y-68411173D02*
X49909523Y-68563554D01*
X49909523Y-68563554D02*
X49947618Y-68639744D01*
X49947618Y-68639744D02*
X49985713Y-68677840D01*
X49985713Y-68677840D02*
X50061904Y-68715935D01*
X50061904Y-68715935D02*
X50138094Y-68715935D01*
X50138094Y-68715935D02*
X50214285Y-68677840D01*
X50214285Y-68677840D02*
X50252380Y-68639744D01*
X50252380Y-68639744D02*
X50290475Y-68563554D01*
X50290475Y-68563554D02*
X50328571Y-68411173D01*
X50328571Y-68411173D02*
X50328571Y-68220697D01*
X50328571Y-68220697D02*
X50290475Y-68068316D01*
X50290475Y-68068316D02*
X50252380Y-67992125D01*
X50252380Y-67992125D02*
X50214285Y-67954030D01*
X50214285Y-67954030D02*
X50138094Y-67915935D01*
X70052380Y-68715935D02*
X69899999Y-68715935D01*
X69899999Y-68715935D02*
X69823809Y-68677840D01*
X69823809Y-68677840D02*
X69785713Y-68639744D01*
X69785713Y-68639744D02*
X69709523Y-68525459D01*
X69709523Y-68525459D02*
X69671428Y-68373078D01*
X69671428Y-68373078D02*
X69671428Y-68068316D01*
X69671428Y-68068316D02*
X69709523Y-67992125D01*
X69709523Y-67992125D02*
X69747618Y-67954030D01*
X69747618Y-67954030D02*
X69823809Y-67915935D01*
X69823809Y-67915935D02*
X69976190Y-67915935D01*
X69976190Y-67915935D02*
X70052380Y-67954030D01*
X70052380Y-67954030D02*
X70090475Y-67992125D01*
X70090475Y-67992125D02*
X70128571Y-68068316D01*
X70128571Y-68068316D02*
X70128571Y-68258792D01*
X70128571Y-68258792D02*
X70090475Y-68334982D01*
X70090475Y-68334982D02*
X70052380Y-68373078D01*
X70052380Y-68373078D02*
X69976190Y-68411173D01*
X69976190Y-68411173D02*
X69823809Y-68411173D01*
X69823809Y-68411173D02*
X69747618Y-68373078D01*
X69747618Y-68373078D02*
X69709523Y-68334982D01*
X69709523Y-68334982D02*
X69671428Y-68258792D01*
X63147618Y-67915935D02*
X63299999Y-67915935D01*
X63299999Y-67915935D02*
X63376190Y-67954030D01*
X63376190Y-67954030D02*
X63414285Y-67992125D01*
X63414285Y-67992125D02*
X63490475Y-68106411D01*
X63490475Y-68106411D02*
X63528571Y-68258792D01*
X63528571Y-68258792D02*
X63528571Y-68563554D01*
X63528571Y-68563554D02*
X63490475Y-68639744D01*
X63490475Y-68639744D02*
X63452380Y-68677840D01*
X63452380Y-68677840D02*
X63376190Y-68715935D01*
X63376190Y-68715935D02*
X63223809Y-68715935D01*
X63223809Y-68715935D02*
X63147618Y-68677840D01*
X63147618Y-68677840D02*
X63109523Y-68639744D01*
X63109523Y-68639744D02*
X63071428Y-68563554D01*
X63071428Y-68563554D02*
X63071428Y-68373078D01*
X63071428Y-68373078D02*
X63109523Y-68296887D01*
X63109523Y-68296887D02*
X63147618Y-68258792D01*
X63147618Y-68258792D02*
X63223809Y-68220697D01*
X63223809Y-68220697D02*
X63376190Y-68220697D01*
X63376190Y-68220697D02*
X63452380Y-68258792D01*
X63452380Y-68258792D02*
X63490475Y-68296887D01*
X63490475Y-68296887D02*
X63528571Y-68373078D01*
X67776190Y-68258792D02*
X67852380Y-68220697D01*
X67852380Y-68220697D02*
X67890475Y-68182601D01*
X67890475Y-68182601D02*
X67928571Y-68106411D01*
X67928571Y-68106411D02*
X67928571Y-68068316D01*
X67928571Y-68068316D02*
X67890475Y-67992125D01*
X67890475Y-67992125D02*
X67852380Y-67954030D01*
X67852380Y-67954030D02*
X67776190Y-67915935D01*
X67776190Y-67915935D02*
X67623809Y-67915935D01*
X67623809Y-67915935D02*
X67547618Y-67954030D01*
X67547618Y-67954030D02*
X67509523Y-67992125D01*
X67509523Y-67992125D02*
X67471428Y-68068316D01*
X67471428Y-68068316D02*
X67471428Y-68106411D01*
X67471428Y-68106411D02*
X67509523Y-68182601D01*
X67509523Y-68182601D02*
X67547618Y-68220697D01*
X67547618Y-68220697D02*
X67623809Y-68258792D01*
X67623809Y-68258792D02*
X67776190Y-68258792D01*
X67776190Y-68258792D02*
X67852380Y-68296887D01*
X67852380Y-68296887D02*
X67890475Y-68334982D01*
X67890475Y-68334982D02*
X67928571Y-68411173D01*
X67928571Y-68411173D02*
X67928571Y-68563554D01*
X67928571Y-68563554D02*
X67890475Y-68639744D01*
X67890475Y-68639744D02*
X67852380Y-68677840D01*
X67852380Y-68677840D02*
X67776190Y-68715935D01*
X67776190Y-68715935D02*
X67623809Y-68715935D01*
X67623809Y-68715935D02*
X67547618Y-68677840D01*
X67547618Y-68677840D02*
X67509523Y-68639744D01*
X67509523Y-68639744D02*
X67471428Y-68563554D01*
X67471428Y-68563554D02*
X67471428Y-68411173D01*
X67471428Y-68411173D02*
X67509523Y-68334982D01*
X67509523Y-68334982D02*
X67547618Y-68296887D01*
X67547618Y-68296887D02*
X67623809Y-68258792D01*
X56966666Y-67915935D02*
X56471428Y-67915935D01*
X56471428Y-67915935D02*
X56738094Y-68220697D01*
X56738094Y-68220697D02*
X56623809Y-68220697D01*
X56623809Y-68220697D02*
X56547618Y-68258792D01*
X56547618Y-68258792D02*
X56509523Y-68296887D01*
X56509523Y-68296887D02*
X56471428Y-68373078D01*
X56471428Y-68373078D02*
X56471428Y-68563554D01*
X56471428Y-68563554D02*
X56509523Y-68639744D01*
X56509523Y-68639744D02*
X56547618Y-68677840D01*
X56547618Y-68677840D02*
X56623809Y-68715935D01*
X56623809Y-68715935D02*
X56852380Y-68715935D01*
X56852380Y-68715935D02*
X56928571Y-68677840D01*
X56928571Y-68677840D02*
X56966666Y-68639744D01*
%LPC*%
D11*
%TO.C,H3*%
X60299500Y-42177000D03*
%TD*%
%TO.C,H1*%
X43403000Y-68734300D03*
%TD*%
%TO.C,H2*%
X76385100Y-68734300D03*
%TD*%
D12*
%TO.C,R1*%
X50100000Y-67225000D03*
X50100000Y-65575000D03*
%TD*%
D13*
%TO.C,GND*%
X60000000Y-62000000D03*
%TD*%
D12*
%TO.C,R5*%
X58900000Y-67225000D03*
X58900000Y-65575000D03*
%TD*%
%TO.C,R2*%
X52300000Y-67225000D03*
X52300000Y-65575000D03*
%TD*%
D13*
%TO.C,P0*%
X50100000Y-69800000D03*
%TD*%
D12*
%TO.C,R3*%
X54500000Y-67225000D03*
X54500000Y-65575000D03*
%TD*%
D13*
%TO.C,P9*%
X69900000Y-69800000D03*
%TD*%
%TO.C,P8*%
X67700000Y-69800000D03*
%TD*%
%TO.C,P7*%
X65500000Y-69800000D03*
%TD*%
D12*
%TO.C,R9*%
X67700000Y-67225000D03*
X67700000Y-65575000D03*
%TD*%
D13*
%TO.C,P4*%
X58900000Y-69800000D03*
%TD*%
D12*
%TO.C,R7*%
X63300000Y-67225000D03*
X63300000Y-65575000D03*
%TD*%
D13*
%TO.C,P5*%
X61100000Y-69800000D03*
%TD*%
D12*
%TO.C,R4*%
X56700000Y-67225000D03*
X56700000Y-65575000D03*
%TD*%
D13*
%TO.C,P3*%
X56700000Y-69800000D03*
%TD*%
D12*
%TO.C,R10*%
X69900000Y-67225000D03*
X69900000Y-65575000D03*
%TD*%
%TO.C,R6*%
X61100000Y-67225000D03*
X61100000Y-65575000D03*
%TD*%
%TO.C,R8*%
X65500000Y-67225000D03*
X65500000Y-65575000D03*
%TD*%
D13*
%TO.C,P1*%
X52300000Y-69800000D03*
%TD*%
%TO.C,P2*%
X54500000Y-69800000D03*
%TD*%
%TO.C,P6*%
X63300000Y-69800000D03*
%TD*%
%LPD*%
M02*
